<mxfile host="app.diagrams.net" modified="2024-01-19T15:15:04.683Z" agent="Mozilla/5.0 (Macintosh; Intel Mac OS X 10_15_7) AppleWebKit/605.1.15 (KHTML, like Gecko) Version/17.2.1 Safari/605.1.15" version="22.1.21" etag="5MttYXVOK1YmO5Bos5Sl" type="github">
  <diagram name="Page-1" id="SP8hqKRkjQrA7423Tj-U">
    <mxGraphModel>
      <root>
        <mxCell id="0" />
        <mxCell id="1" parent="0" />
      </root>
    </mxGraphModel>
  </diagram>
</mxfile>
